# xmcd
#
# Track frame offsets:
#	150
#	14830
#	29120
#	50627
#	69710
#	83825
#	101935
#	117885
#	133730
#	152820
#	168532
#	189067
#	207625
#	234052
#
# Disc length: 3375 seconds
#
# Revision: 1
# Processed by: cddbd v1.5.2PL0 Copyright (c) Steve Scherf et al.
# Submitted via: EZCDAudioConverter 6.0.2.1
#
DISCID=ca0d2d0e
DTITLE=John Denver - Country Roads: The Very Best of John Denver
DYEAR=1997
DGENRE=Country
TTITLE0=Take Me Home, Country Roads
TTITLE1=Home Grown Tomatoes
TTITLE2=Eagles and Horses
TTITLE3=Hold on to Me
TTITLE4=Annie's Song
TTITLE5=Windsong
TTITLE6=Two Different Directions
TTITLE7=Higher Ground
TTITLE8=Raven's Child
TTITLE9=Rocky Mountain Suite
TTITLE10=Earth Day Every Day (Celebrate)
TTITLE11=Tenderly Calling
TTITLE12=Stonehaven Sunset
TTITLE13=Potter's Wheel
EXTD=
EXTT0=
EXTT1=
EXTT2=
EXTT3=
EXTT4=
EXTT5=
EXTT6=
EXTT7=
EXTT8=
EXTT9=
EXTT10=
EXTT11=
EXTT12=
EXTT13=
PLAYORDER=
